<svg width="90" height="90.1336089098616" viewBox="0 0 120 104.1336089098616" ><defs id="SvgjsDefs1347"></defs><g id="SvgjsG1348" featurekey="xG21Y3-0" transform="matrix(0.9767644607101363,0,0,0.9767644607101363,15.615304488640687,15.1816208296175)" fill="#ffffe6"><path xmlns="http://www.w3.org/2000/svg" d="M62.433,11.672l-5.826-4.959l-0.255-0.217l-0.339-0.289l-0.041,0.048C54.982,5.697,52.763,4.933,48,4.933  s-6.983,0.765-7.972,1.322l-0.041-0.048l-0.339,0.289l-0.255,0.217l-5.826,4.959l-12.53,2.949L4.489,43.953l14.848,9.016l5.57-8.717  v46.816h46.186V44.252l5.57,8.717l14.848-9.016L74.962,14.621L62.433,11.672z M56.176,8.316l4.85,4.127  c-2.3,2.799-6.461,9.313-8.112,11.935l-4.012-7.623L56.176,8.316z M39.823,8.316l7.275,8.438l-4.012,7.623  c-1.651-2.621-5.812-9.136-8.112-11.935L39.823,8.316z M47.25,33.166v56.402H26.407V32.154h-1.5v9.312l-6.044,9.46l-12.353-7.5  L22.02,15.93l11.627-2.734c2.691,3.169,8.795,12.979,8.858,13.081l0.691,1.112l4.053-7.701V33.166z M41.041,7.431  C41.91,7.033,43.896,6.433,48,6.433c4.118,0,6.105,0.604,6.962,0.994L48,15.504L41.041,7.431z M77.137,50.926l-6.044-9.46v-9.312  h-1.5v57.414H48.75V33.166V19.688l4.053,7.701l0.691-1.112c0.063-0.103,6.168-9.912,8.859-13.081l11.626,2.734l15.51,27.496  L77.137,50.926z"></path><rect xmlns="http://www.w3.org/2000/svg" x="56.094" y="33.296" width="8.324" height="1.5"></rect></g></svg>